<?xml version="1.0" encoding="UTF-8" standalone="no"?>
<!-- Created with Inkscape (http://www.inkscape.org/) -->

<svg
   xmlns:dc="http://purl.org/dc/elements/1.1/"
   xmlns:cc="http://creativecommons.org/ns#"
   xmlns:rdf="http://www.w3.org/1999/02/22-rdf-syntax-ns#"
   xmlns:svg="http://www.w3.org/2000/svg"
   xmlns="http://www.w3.org/2000/svg"
   xmlns:sodipodi="http://sodipodi.sourceforge.net/DTD/sodipodi-0.dtd"
   xmlns:inkscape="http://www.inkscape.org/namespaces/inkscape"
   width="210mm"
   height="297mm"
   viewBox="0 0 210 297"
   version="1.1"
   id="svg8"
   inkscape:version="0.92.3 (2405546, 2018-03-11)"
   sodipodi:docname="iniciales.svg">
  <defs
     id="defs2" />
  <sodipodi:namedview
     id="base"
     pagecolor="#ffffff"
     bordercolor="#666666"
     borderopacity="1.0"
     inkscape:pageopacity="0.0"
     inkscape:pageshadow="2"
     inkscape:zoom="0.35"
     inkscape:cx="-127.14286"
     inkscape:cy="560"
     inkscape:document-units="mm"
     inkscape:current-layer="layer1"
     showgrid="false"
     inkscape:window-width="1366"
     inkscape:window-height="705"
     inkscape:window-x="-8"
     inkscape:window-y="-8"
     inkscape:window-maximized="1" />
  <metadata
     id="metadata5">
    <rdf:RDF>
      <cc:Work
         rdf:about="">
        <dc:format>image/svg+xml</dc:format>
        <dc:type
           rdf:resource="http://purl.org/dc/dcmitype/StillImage" />
        <dc:title></dc:title>
      </cc:Work>
    </rdf:RDF>
  </metadata>
  <g
     inkscape:label="Capa 1"
     inkscape:groupmode="layer"
     id="layer1">
    <g
       id="g849">
      <g
         id="g840">
        <path
           style="fill:#b3b3b3;stroke:#000000;stroke-width:0.26458332px;stroke-linecap:butt;stroke-linejoin:miter;stroke-opacity:1"
           d="m 29.482142,120.14681 c 4.984377,-9.96874 0.583414,-2.58973 21.922618,-14.36309 0.493347,-0.27219 0.959395,-0.64545 1.511906,-0.75595 0.741273,-0.14826 1.638866,0.41932 2.267857,0 0.419328,-0.27955 -0.419327,-1.23236 0,-1.51191 0.628992,-0.41932 1.733318,0.53454 2.267858,0 0.534538,-0.53453 -0.53454,-1.73331 0,-2.26785 0.534538,-0.53454 1.550696,0.23905 2.267857,0 0.239052,-0.0797 -0.178181,-0.57778 0,-0.75596 0.178179,-0.17818 0.503968,0 0.755952,0 0.503968,0 1.007936,0 1.511903,0 0.251987,0 0.643263,0.22538 0.755955,0 0.22538,-0.45076 -0.43215,-1.252612 0,-1.511902 1.101767,-0.66106 2.50481,-0.59658 3.77976,-0.75595 0.750115,-0.0938 1.511906,0 2.267858,0 0.251984,0 0.546288,0.13977 0.755951,0 0.593019,-0.39535 0.918888,-1.11656 1.511906,-1.51191 0.209664,-0.13977 0.516898,0.0797 0.755952,0 2.605929,-0.86864 0.559983,-0.75595 2.267857,-0.75595 1.25992,0 2.519842,0 3.779761,0 0.251987,0 0.643263,0.22538 0.755954,0 0.22538,-0.45076 -0.356359,-1.155545 0,-1.511904 0.101193,-0.101193 3.521578,0.08606 3.779761,0 0.338071,-0.112691 0.470866,-0.542137 0.755952,-0.755954 0.726834,-0.545124 1.424299,-1.17448 2.267857,-1.511904 0.467924,-0.187169 1.033799,0.15937 1.511906,0 0.338071,-0.112691 0.41788,-0.643263 0.755952,-0.755951 0.478107,-0.159369 1.007938,0 1.511906,0 0.251983,0 0.546287,0.139774 0.755951,0 0.593019,-0.395346 0.900753,-1.145215 1.511906,-1.511906 0.683287,-0.409972 1.555136,-0.399592 2.267855,-0.755952 0.812625,-0.406312 1.455235,-1.105593 2.267857,-1.511906 0.225383,-0.112691 0.503968,0 0.755955,0 0.503967,0 1.033798,0.15937 1.511903,0 0.338071,-0.112691 0.404442,-0.697367 0.755952,-0.755951 1.24278,-0.207129 2.51984,0 3.77976,0 0.25199,0 0.54629,0.139774 0.75595,0 0.59302,-0.395346 0.91889,-1.11656 1.51191,-1.511906 0.20966,-0.139774 0.57777,0.178181 0.75595,0 0.17818,-0.178178 -0.22538,-0.64326 0,-0.755952 0.60476,-0.302381 1.6631,0.302382 2.26786,0 7.05071,-4.700471 -1.06113,0.101727 3.77976,-1.511906 0.55216,-0.184054 2.47165,-2.839754 3.02381,-3.023809 0.25818,-0.08606 3.67857,0.101193 3.77976,0 0.35636,-0.356359 -0.22538,-1.06114 0,-1.511903 0.11269,-0.225383 0.50397,0 0.75595,0 0.50397,0 1.0338,0.159369 1.51191,0 0.33807,-0.112691 0.41788,-0.643263 0.75595,-0.755954 0.47811,-0.159367 1.15555,0.356359 1.51191,0 0.35636,-0.35636 -0.22538,-1.061141 0,-1.511903 0.11269,-0.225383 0.57777,0.178178 0.75595,0 0.17818,-0.178181 0,-1.007939 0,-0.755952 0,2.519839 0,5.03968 0,7.559521 0,0.487355 -0.10828,2.861387 0,3.023812 0.39534,0.593016 1.11656,0.918885 1.5119,1.511903 0.13978,0.209664 0,0.503968 0,0.755952 0,0.50397 -0.22538,1.061143 0,1.511906 0.11269,0.22538 0.5169,-0.07968 0.75596,0 0.53453,0.178178 1.19935,0.287131 1.5119,0.755952 0.21671,0.325061 -0.1601,3.299465 0,3.779763 0.11269,0.338071 0.64326,0.41788 0.75595,0.755951 0.15937,0.478103 -0.27955,1.092583 0,1.511903 0.31255,0.46882 1.11348,0.35753 1.51191,0.75595 1.62366,1.62366 0.0409,2.707152 0.75595,3.779772 0.31255,0.46882 1.19936,0.28713 1.51191,0.75595 0,2.39261 -0.35636,0.78477 0.75595,2.26785 0.50396,0.75596 1.00793,1.51191 1.5119,2.26786 0,0.50397 -0.22538,1.06115 0,1.51191 0.11269,0.22538 0.57778,-0.17818 0.75595,0 0.17819,0.17818 0,0.50397 0,0.75595 0,0.50397 -0.27955,1.09258 0,1.51191 0.31255,0.46882 1.19936,0.28712 1.51191,0.75595 0.27955,0.41932 -0.22538,1.06114 0,1.5119 0.11269,0.22538 0.50397,0 0.75595,0 4.28373,0 0.25199,-0.50397 1.51191,0.75595 0.17818,0.17818 0.64326,-0.22538 0.75595,0 0.17474,0.34949 -0.18758,3.59219 0,3.77977 0.37797,0.37797 1.88988,-0.37798 2.26786,0 0.37797,0.37797 -0.37798,1.88988 0,2.26785 0.37797,0.37798 1.88988,-0.37797 2.26785,0 0.17818,0.17818 0,0.50397 0,0.75595 0,0.50398 -0.35636,1.15555 0,1.51191 0.19286,0.19286 2.075,-0.19286 2.26786,0 0.17818,0.17818 0,0.50397 0,0.75595 0,0.50397 -0.27955,1.09258 0,1.51191 0.31255,0.46882 1.19936,0.28713 1.5119,0.75595 0.27956,0.41933 0,2.01587 0,1.51191 0,-0.75596 0.53455,-1.73332 0,-2.26786 -0.69618,-0.69619 -3.59102,0.47234 -4.53571,0 -0.22538,-0.11269 0.17818,-0.57778 0,-0.75595 -0.17818,-0.17818 -0.54629,0.13977 -0.75595,0 -0.59302,-0.39535 -0.91889,-1.11656 -1.51191,-1.51191 -0.20966,-0.13978 -0.53057,0.11269 -0.75595,0 -1.31419,-0.65709 -2.55722,-1.45283 -3.77976,-2.26786 -0.68168,-0.45445 -2.58277,-2.87679 -3.02381,-3.02381 -0.47811,-0.15937 -1.00794,0 -1.5119,0 -0.25199,0 -0.64327,0.22538 -0.75596,0 -0.22538,-0.45076 0.35636,-1.15554 0,-1.5119 -0.35636,-0.35636 -1.00793,0 -1.5119,0 -2.48482,0 2.07536,0.11269 -2.26786,-0.75595 -0.74127,-0.14826 -1.63887,0.41932 -2.26786,0 -0.41932,-0.27955 0.0988,-1.01773 0,-1.51191 -0.15627,-0.78137 -0.11847,-1.78975 -0.75595,-2.26785 -5.45409,-4.09057 0.36319,3.387 -3.77976,-0.75596 -0.39842,-0.39842 -0.25198,-1.25992 -0.75595,-1.5119 -0.67615,-0.33808 -1.5507,0.23905 -2.26786,0 -0.23905,-0.0797 0.22538,-0.64326 0,-0.75595 -0.45076,-0.22539 -1.09258,0.27955 -1.5119,0 -0.46883,-0.31255 -0.28714,-1.19936 -0.75596,-1.51191 -0.41932,-0.27955 -1.06114,0.22538 -1.5119,0 -0.22538,-0.11269 0.17818,-0.57777 0,-0.75595 -0.17818,-0.17818 -0.50397,0 -0.75595,0 -0.14228,0 -3.73631,-0.029 -3.77977,0 -0.46882,0.31255 -0.41788,1.06114 -0.75595,1.5119 -0.42763,0.57018 -1.11656,0.91889 -1.5119,1.51191 -0.13978,0.20966 0.17818,0.57777 0,0.75595 -0.17818,0.17818 -0.64327,-0.22538 -0.75596,0 -0.22538,0.45076 0.35636,1.15555 0,1.51191 -0.35636,0.35636 -1.06114,-0.22539 -1.5119,0 -0.22538,0.11268 0.17818,0.57777 0,0.75595 -0.37798,0.37797 -1.88988,-0.37798 -2.26786,0 -0.37797,0.37797 0.37798,1.88988 0,2.26785 -0.37797,0.37798 -1.88988,-0.37797 -2.26785,0 -0.35636,0.35636 0.22538,1.06115 0,1.51191 -0.1127,0.22538 -0.577778,-0.17818 -0.755956,0 -0.178181,0.17818 0,0.50397 0,0.75595 -0.503968,0 -1.155547,-0.35636 -1.511906,0 -0.356359,0.35636 0.225383,1.06114 0,1.51191 -0.149543,0.29908 -1.515809,-0.37603 -2.267858,0 -0.393877,0.19694 0.601409,1.86691 0,2.26785 -0.628988,0.41933 -1.534474,-0.18334 -2.267857,0 -0.345718,0.0864 -0.41788,0.64327 -0.755952,0.75595 -0.478104,0.15937 -1.155544,-0.35635 -1.511903,0 -0.356359,0.35636 0.22538,1.06115 0,1.51191 -0.112691,0.22538 -0.50397,0 -0.755954,0 -0.211344,0 -3.661484,-0.0591 -3.779761,0 -0.225383,0.11269 0.178178,0.57777 0,0.75595 -0.178181,0.17818 -0.643263,-0.22538 -0.755952,0 -0.225382,0.45076 0,2.01588 0,1.51191 0,-0.75595 0,-1.51191 0,-2.26786 0,-0.25198 0.22538,-0.64326 0,-0.75595 -0.752049,-0.37603 -2.118315,0.29908 -2.267857,0 -0.225383,-0.45076 0.356359,-1.15555 0,-1.51191 -0.356359,-0.35636 -1.007938,0 -1.511906,0 -0.251984,0 -0.503968,0 -0.755952,0 -3.779763,0 -7.559524,0 -11.339284,0 -1.511906,0 -3.023812,0 -4.535715,0 -0.755952,0 -1.733317,-0.53453 -2.267858,0 -0.53454,0.53454 0.534541,1.73332 0,2.26786 -0.53454,0.53454 -1.511906,0 -2.267857,0 -1.25992,0 -2.536984,-0.20713 -3.779761,0 -0.351512,0.0586 -0.41788,0.64326 -0.755954,0.75595 -0.478105,0.15937 -1.092576,-0.27955 -1.511904,0 -0.468823,0.31255 -0.221413,1.33373 -0.755951,1.51191 -1.195266,0.39842 -2.519841,0 -3.779763,0 -0.755952,0 -1.591713,-0.33808 -2.267858,0 -0.22538,0.11269 0.178181,0.57777 0,0.75595 -0.178178,0.17818 -0.503968,0 -0.755952,0 -0.246787,0 -3.617401,0.16236 -3.77976,0 -0.243753,-0.24375 0.210015,-2.39376 0,-3.02381 -0.370772,-1.11231 -1.448292,-0.75595 -2.267858,-0.75595 -0.251984,0 -0.643263,0.22538 -0.755954,0 -0.22538,-0.45076 0.356359,-1.15555 0,-1.51191 -0.356359,-0.35636 -1.033799,0.15937 -1.511903,0 -0.338072,-0.11269 -1.007938,-0.50396 -0.755952,-0.75595 0.251984,-0.25198 1.112311,0.75595 0.755952,0.75595 -0.796843,0 -1.494806,-0.56269 -2.267858,-0.75595 -0.203732,-0.0509 -4.340637,-0.065 -4.535715,0 -1.069078,0.35636 -2.015871,1.00794 -3.023809,1.5119 z"
           id="path834"
           inkscape:connector-curvature="0" />
        <path
           sodipodi:type="spiral"
           style="fill:#ffff00;fill-rule:evenodd;stroke:#000000;stroke-width:0.26458332"
           id="path836"
           sodipodi:cx="51.404762"
           sodipodi:cy="98.940468"
           sodipodi:expansion="1"
           sodipodi:revolution="3"
           sodipodi:radius="26.45982"
           sodipodi:argument="-18.295305"
           sodipodi:t0="0"
           d="m 51.404762,98.940468 c 1.128047,0.698226 -0.384656,1.865062 -1.160497,1.874892 -2.102482,0.0266 -3.026022,-2.457067 -2.589278,-4.195887 0.781231,-3.110341 4.42815,-4.311494 7.231268,-3.303669 4.113688,1.479025 5.626918,6.423033 4.018059,10.266656 -2.144356,5.12294 -8.425976,6.95461 -13.302039,4.73245 -6.136028,-2.79637 -8.288559,-10.432669 -5.44684,-16.337427 3.441703,-7.151453 12.441449,-9.626103 19.37281,-6.16123 8.168368,4.083233 10.965905,14.451537 6.87562,22.408197 -4.722396,9.18628 -16.462485,12.30721 -25.44358,7.59001 C 30.755394,110.45447 27.310709,97.34041 32.655884,87.335493 38.652363,76.111488 53.141942,72.342788 64.170235,78.316702 76.41373,84.948878 80.506642,100.81511 73.903416,112.86644" />
      </g>
      <g
         transform="matrix(1.4118456,0,0,1.4118456,-40.09762,-55.187355)"
         id="g832">
        <path
           inkscape:connector-curvature="0"
           id="path819"
           style="font-style:normal;font-variant:normal;font-weight:normal;font-stretch:normal;font-size:medium;line-height:1.25;font-family:'Run to the Hills Personal Use';-inkscape-font-specification:'Run to the Hills Personal Use';letter-spacing:0px;word-spacing:0px;fill:#0000ff;fill-opacity:1;stroke:none;stroke-width:0.26458332"
           d="m 73.878724,112.86637 q 0.246945,-0.0494 0.493889,-0.0617 0.259292,-0.0123 0.506236,-0.0123 1.037167,0 1.827389,0.30868 0.80257,0.29633 1.382889,0.80257 0.58032,0.49389 0.938389,1.13594 0.35807,0.62971 0.518583,1.28411 0.22225,0.93839 0.111125,1.778 -0.09878,0.82727 -0.4445,1.54341 -0.345722,0.71614 -0.901347,1.32115 -0.543278,0.59267 -1.210028,1.04951 -0.654402,0.45685 -1.382889,0.76553 -0.716138,0.30868 -1.41993,0.45685 0.432153,0.51858 1.024819,1.14829 0.605014,0.61736 1.296459,1.14829 0.691444,0.54328 1.444625,0.90135 0.75318,0.37042 1.518708,0.37042 0.271639,0 0.629708,-0.0741 0.08643,0 0.13582,0.28399 0.04939,0.28399 0.02469,0.62971 -0.02469,0.35807 -0.123472,0.6544 -0.08643,0.30868 -0.271639,0.33338 -1.074208,-0.0617 -2.012597,-0.58032 -0.938389,-0.50624 -1.753306,-1.27177 -0.814916,-0.75318 -1.518708,-1.65453 -0.691444,-0.90134 -1.296458,-1.72861 l -0.03704,-0.037 h -0.185208 q -0.07408,0 -0.148167,0 -0.06174,-0.0123 -0.135819,-0.0247 -0.160514,1.17298 -0.209903,2.1978 -0.04939,1.02482 0.03704,1.8027 -0.03704,0.0494 -0.246944,-0.0864 -0.209903,-0.12348 -0.456847,-0.32103 -0.246945,-0.18521 -0.469195,-0.39511 -0.209902,-0.20991 -0.246944,-0.32103 -0.123472,-0.66675 -0.123472,-1.53106 0.01235,-0.87665 0.111125,-1.86443 -0.592667,-0.32102 -1.012473,-0.79022 -0.407458,-0.46919 -0.592666,-1.02482 -0.09878,-0.2346 0.03704,-0.4445 0.13582,-0.22225 0.481542,-0.40746 0.296333,0.62971 0.592667,1.03717 0.30868,0.39511 0.605014,0.64206 0.148166,-1.03717 0.358069,-2.09903 0.209903,-1.06186 0.456847,-2.06199 0.246945,-1.00012 0.518584,-1.88912 0.271639,-0.90135 0.53093,-1.5928 -0.66675,0.29634 -1.271764,0.87666 -0.592666,0.56797 -1.086555,1.3088 -0.481542,0.74084 -0.851959,1.5681 -0.370416,0.82726 -0.592666,1.62983 -0.209903,0.79023 -0.271639,1.49402 -0.04939,0.70379 0.09878,1.17298 0.07408,0.22225 -0.160514,0.19756 -0.234597,-0.0247 -0.555625,-0.2099 -0.333375,-0.19756 -0.642056,-0.53093 -0.30868,-0.33338 -0.395111,-0.71614 -0.02469,-0.11113 -0.03704,-0.22225 -0.02469,-0.12348 -0.01235,-0.2346 v 0.0123 q 0.01235,-1.40759 0.469195,-2.75343 0.4445,-1.34585 1.271764,-2.40771 0.839611,-1.07421 2.012597,-1.75331 1.185333,-0.67909 2.667,-0.75318 z m 0.345723,1.07421 q -0.22225,0.0247 -0.4445,0.0741 0.209902,0.0864 0.456847,0.24695 0.246944,0.16051 0.456847,0.37041 0.209903,0.19756 0.333375,0.43216 0.135819,0.22225 0.111125,0.43215 -0.345722,0.6791 -0.654403,1.49401 -0.30868,0.80257 -0.567972,1.67923 -0.259292,0.87665 -0.481542,1.80269 -0.209902,0.92604 -0.370416,1.82739 0.629708,-0.037 1.259416,-0.27164 0.642056,-0.2346 1.210028,-0.64205 0.58032,-0.40746 1.061861,-0.95074 0.481542,-0.55563 0.790222,-1.21003 0.321028,-0.6544 0.432153,-1.39523 0.123472,-0.74084 -0.02469,-1.53106 -0.09878,-0.34572 -0.321028,-0.75318 -0.22225,-0.41981 -0.642056,-0.76553 -0.407458,-0.35807 -1.049513,-0.59267 -0.629709,-0.24694 -1.55575,-0.24694 z" />
        <path
           inkscape:connector-curvature="0"
           id="path821"
           style="font-style:normal;font-variant:normal;font-weight:normal;font-stretch:normal;font-size:medium;line-height:1.25;font-family:'Run to the Hills Personal Use';-inkscape-font-specification:'Run to the Hills Personal Use';letter-spacing:0px;word-spacing:0px;fill:#0000ff;fill-opacity:1;stroke:none;stroke-width:0.26458332"
           d="m 94.459075,116.86687 q -0.246944,0.2099 -0.592666,0.2099 -0.283986,0 -0.543278,-0.14816 -0.259292,-0.16052 -0.469194,-0.35807 -0.197556,-0.2099 -0.321028,-0.40746 -0.111125,-0.19756 -0.09878,-0.28399 0.234597,-0.13582 0.469194,-0.30868 0.234598,-0.1852 0.407459,-0.39511 0.185208,-0.2099 0.271639,-0.4445 0.08643,-0.24694 0.03704,-0.50623 -0.03704,-0.13582 -0.172861,-0.24695 -0.135819,-0.11112 -0.432153,-0.14816 -0.09878,-0.0247 -0.209902,-0.0247 -0.09878,0 -0.197556,0 -0.432153,0 -0.926042,0.0988 -0.493889,0.0864 -0.97543,0.27164 -0.469195,0.17286 -0.889,0.43215 -0.419806,0.25929 -0.703792,0.61736 -0.271639,0.34572 -0.370417,0.77788 -0.09878,0.4198 0.07408,0.92604 0.111125,0.33337 0.321028,0.66675 0.209902,0.32103 0.481541,0.64205 0.283986,0.30868 0.592667,0.61736 0.321028,0.29634 0.654403,0.60502 0.407458,0.38276 0.802569,0.77787 0.395111,0.38277 0.716139,0.81492 0.333375,0.41981 0.567972,0.87665 0.246945,0.45685 0.333375,0.97543 0.08643,0.74084 -0.197555,1.51871 -0.283986,0.77788 -0.876653,1.40759 -0.58032,0.6297 -1.432278,1.01247 -0.839611,0.38276 -1.86443,0.34572 -0.555625,-0.0494 -1.24707,-0.27164 -0.691444,-0.2099 -1.3335,-0.59267 -0.629708,-0.37041 -1.135944,-0.92604 -0.506236,-0.54327 -0.703792,-1.27176 -0.209903,-0.80257 -0.03704,-1.51871 0.172861,-0.72849 0.901348,-1.43228 l -0.03704,0.0123 q 0.03704,-0.0494 0.197555,-0.0123 0.172862,0.037 0.395112,0.13582 0.234597,0.0988 0.481541,0.2346 0.259292,0.13582 0.469195,0.28399 0.209902,0.14816 0.345722,0.27163 0.135819,0.12348 0.135819,0.19756 l -0.259291,0.19756 q -0.22225,0.14816 -0.4445,0.30868 -0.209903,0.16051 -0.370417,0.37041 -0.160514,0.19756 -0.234597,0.45685 -0.06174,0.24694 0.01235,0.56797 0.123472,0.49389 0.407458,0.80257 0.283986,0.30868 0.654403,0.48154 0.370417,0.17286 0.790222,0.2346 0.419806,0.0617 0.827264,0.0617 0.703792,0 1.24707,-0.20991 0.543277,-0.19755 0.876652,-0.56797 0.345723,-0.37042 0.456848,-0.90135 0.111125,-0.53093 -0.04939,-1.19768 -0.08643,-0.33337 -0.283986,-0.6544 -0.197556,-0.32103 -0.469195,-0.61736 -0.271639,-0.30868 -0.592666,-0.59267 -0.308681,-0.29633 -0.642056,-0.58032 -0.395111,-0.34572 -0.765528,-0.69144 -0.370416,-0.35807 -0.679097,-0.74083 -0.308681,-0.38277 -0.530931,-0.79023 -0.209902,-0.40745 -0.283986,-0.87665 -0.08643,-0.6791 0.09878,-1.3088 0.185208,-0.62971 0.58032,-1.17299 0.395111,-0.55563 0.950736,-1.00013 0.567972,-0.4445 1.234722,-0.75318 0.66675,-0.30868 1.395236,-0.45684 0.740833,-0.16052 1.46932,-0.12348 0.456847,0.0371 0.790222,0.19756 0.345722,0.14817 0.592666,0.39511 0.259292,0.2346 0.419806,0.55563 0.160514,0.32102 0.246944,0.67909 0.172862,0.77788 0.08643,1.37054 -0.08643,0.58032 -0.370417,1.07421 z" />
        <path
           inkscape:connector-curvature="0"
           id="path823"
           style="font-style:normal;font-variant:normal;font-weight:normal;font-stretch:normal;font-size:medium;line-height:1.25;font-family:'Run to the Hills Personal Use';-inkscape-font-specification:'Run to the Hills Personal Use';letter-spacing:0px;word-spacing:0px;fill:#0000ff;fill-opacity:1;stroke:none;stroke-width:0.26458332"
           d="m 105.99135,121.44769 q -0.11113,0.037 -0.33338,-0.11112 -0.2099,-0.14817 -0.40746,-0.35807 -0.19755,-0.22225 -0.32102,-0.43216 -0.11113,-0.22225 -0.0247,-0.32102 0.96308,-0.2593 1.9632,-0.48155 1.00013,-0.22225 2.04964,-0.34572 0.91369,-1.23472 1.72861,-2.4324 0.82726,-1.21003 1.46932,-2.19781 0.64205,-1.00012 1.06186,-1.70391 0.43215,-0.71614 0.55563,-0.98778 0.0741,-0.037 0.25929,0.0864 0.19755,0.12347 0.40746,0.32103 0.2099,0.19755 0.39511,0.43215 0.19755,0.2346 0.28398,0.39511 0.12347,0.037 0.12347,0.16052 v -0.0123 q -0.037,0.40746 -0.16051,0.96308 -0.11112,0.55563 -0.28399,1.22238 -0.17286,0.6544 -0.39511,1.38289 -0.2099,0.72848 -0.43215,1.49401 -0.33337,1.14829 -0.6544,2.30893 -0.32103,1.14829 -0.54328,2.14842 -0.22225,0.98777 -0.29633,1.74096 -0.0617,0.74083 0.12347,1.06186 l 0.19755,0.19755 q 0.19756,0.12347 0.27164,0.30868 0.0741,0.18521 0.037,0.33338 -0.0247,0.14816 -0.16051,0.2099 -0.12347,0.0741 -0.33338,-0.0247 -0.37041,-0.0247 -0.6544,-0.17286 -0.27164,-0.13582 -0.46919,-0.37042 -0.19756,-0.22225 -0.33338,-0.50624 -0.13582,-0.28398 -0.2099,-0.60501 -0.12347,-0.55563 -0.11113,-1.11125 0.0247,-0.55563 0.0617,-0.92604 0.11113,-0.69145 0.2593,-1.37055 0.16051,-0.69144 0.35807,-1.38288 -0.16052,-0.0123 -0.30869,-0.0123 -0.14816,0 -0.28398,0 -0.2099,0 -0.41981,0.0123 -0.19755,0 -0.40746,0.0123 l -0.35806,0.49389 h 0.0123 l -0.4692,0.64206 q -0.43215,0.59266 -0.90135,1.22237 -0.46919,0.62971 -0.98777,1.23472 -0.50623,0.59267 -1.06186,1.13595 -0.55562,0.53093 -1.16064,0.93839 -0.59267,0.4198 -1.24707,0.66675 -0.64205,0.25929 -1.34584,0.29633 -1.01248,0.0494 -1.82739,-0.24694 -0.81492,-0.29634 -1.432281,-0.83961 -0.605014,-0.53093 -1.012472,-1.24707 -0.407458,-0.71614 -0.592667,-1.49402 -0.209902,-0.8643 -0.123472,-1.72861 0.08643,-0.87665 0.493889,-1.5681 0.407458,-0.70379 1.135945,-1.14829 0.740833,-0.45684 1.827388,-0.48154 0.86431,-0.0123 1.58044,0.40746 0.72849,0.4198 1.28411,1.19768 l 0.037,0.0617 q 0.0617,0.13582 0.0988,0.40745 0.037,0.27164 0.0123,0.51859 -0.0123,0.23459 -0.0988,0.35807 -0.0864,0.12347 -0.25929,-0.037 -0.1852,-0.2346 -0.45684,-0.50624 -0.27164,-0.27164 -0.59267,-0.49389 -0.30868,-0.2346 -0.66675,-0.39511 -0.34572,-0.16051 -0.69144,-0.16051 -0.83962,-0.0247 -1.407587,0.27163 -0.567973,0.29634 -0.901348,0.80257 -0.321028,0.49389 -0.395111,1.1236 -0.08643,0.62971 0.06174,1.25942 0.123472,0.50623 0.395111,0.97543 0.271639,0.46919 0.679098,0.82726 0.419807,0.35807 0.963087,0.56797 0.55562,0.20991 1.23472,0.20991 0.0864,0 0.17286,0 0.0864,0 0.18521,-0.0123 0.75318,-0.0617 1.48166,-0.48154 0.72849,-0.43215 1.43228,-1.11125 0.71614,-0.6791 1.41993,-1.5434 0.70379,-0.87666 1.40758,-1.82739 -0.49388,0.13582 -0.97543,0.32102 -0.48154,0.18521 -0.96308,0.4445 z m 4.85245,-2.16076 q 0.4692,0 0.93839,0.037 0.19756,-0.6544 0.40746,-1.28411 0.22225,-0.64206 0.4445,-1.29646 l -0.87665,1.27176 z" />
      </g>
    </g>
  </g>
</svg>
